<?xml version="1.0" encoding="iso-8859-1"?>
<!-- Uploaded to: SVG Repo, www.svgrepo.com, Generator: SVG Repo Mixer Tools -->
<svg version="1.1" id="Layer_1" xmlns="http://www.w3.org/2000/svg" xmlns:xlink="http://www.w3.org/1999/xlink" 
	 viewBox="0 0 512 512" xml:space="preserve">
<path d="M355,512H157c-35.2,0-64-28.8-64-64V64c0-35.2,28.8-64,64-64h198c35.2,0,64,28.8,64,64v384C419,483.2,390.2,512,355,512z"/>
<rect x="118" y="60.416" style="fill:#FFFFFF;" width="280" height="376.96"/>
<g>
	<circle style="fill:#CCCCCC;" cx="256" cy="30.176" r="12"/>
	<path style="fill:#CCCCCC;" d="M283.128,488.272h-54.264c-7.496,0-13.568-6.064-13.568-13.568c0-7.496,6.064-13.568,13.568-13.568
		h54.264c7.496,0,13.568,6.064,13.568,13.568C296.696,482.208,290.632,488.272,283.128,488.272z"/>
</g>
<g>
	<rect x="151.216" y="350.296" style="fill:#FF583E;" width="209.6" height="8"/>
	<rect x="174.472" y="377.2" style="fill:#FF583E;" width="163.064" height="8"/>
	<path style="fill:#FF583E;" d="M256,109.76c-33.248,34.936-88.472,27.048-88.472,27.048s0,38.88,0,94.664S256,326.144,256,326.144
		s88.472-38.88,88.472-94.664s0-94.664,0-94.664S289.248,144.696,256,109.76z"/>
</g>
<path style="fill:#FFFFFF;" d="M293.48,263.344c-5.488,3.064-14.84,6.128-25.16,6.128c-15.808,0-30.312-6.456-39.344-18.384
	c-4.36-5.488-7.576-12.416-9.032-20.96h-10.488v-11.456h8.864c0-0.808,0-1.776,0-2.744c0-1.608,0.168-3.216,0.168-4.832h-9.032
	v-11.448h10.808c2.096-8.712,5.968-16.128,11.128-22.096c9.2-10.32,22.096-16.448,37.256-16.448c9.84,0,18.384,2.256,24.192,4.832
	l-4.52,18.384c-4.184-1.776-10.792-3.88-17.904-3.88c-7.736,0-14.84,2.592-19.824,8.712c-2.256,2.576-4.032,6.288-5.168,10.488
	h40.16v11.448H243c-0.152,1.616-0.152,3.392-0.152,5c0,0.968,0,1.608,0,2.576h42.744v11.456h-40.48
	c1.12,4.832,2.896,8.552,5.32,11.288c5.152,5.808,12.744,8.216,20.808,8.216c7.416,0,14.992-2.416,18.384-4.184L293.48,263.344z"/>
</svg>